<svg id="visual" viewBox="0 0 900 600" width="900" height="600" xmlns="http://www.w3.org/2000/svg" xmlns:xlink="http://www.w3.org/1999/xlink" version="1.1"><g stroke-width="1" stroke-linejoin="bevel"><path d="M515 294L595 266L482 237Z" fill="#002555" stroke="#002555"></path><path d="M595 266L612 211L482 237Z" fill="#162e8b" stroke="#162e8b"></path><path d="M612 211L582 127L482 237Z" fill="#002555" stroke="#002555"></path><path d="M595 266L686 221L612 211Z" fill="#242f98" stroke="#242f98"></path><path d="M612 211L691 87L582 127Z" fill="#00172a" stroke="#00172a"></path><path d="M515 294L621 365L595 266Z" fill="#002863" stroke="#002863"></path><path d="M595 266L725 285L686 221Z" fill="#001c38" stroke="#001c38"></path><path d="M426 405L503 407L515 294Z" fill="#012b71" stroke="#012b71"></path><path d="M515 294L503 407L621 365Z" fill="#00172a" stroke="#00172a"></path><path d="M364 85L367 204L482 237Z" fill="#00101c" stroke="#00101c"></path><path d="M482 237L361 304L515 294Z" fill="#092d7e" stroke="#092d7e"></path><path d="M599 0L536 60L582 127Z" fill="#332fa4" stroke="#332fa4"></path><path d="M582 127L536 60L482 237Z" fill="#002555" stroke="#002555"></path><path d="M621 365L725 285L595 266Z" fill="#242f98" stroke="#242f98"></path><path d="M367 204L361 304L482 237Z" fill="#162e8b" stroke="#162e8b"></path><path d="M361 304L426 405L515 294Z" fill="#162e8b" stroke="#162e8b"></path><path d="M575 479L698 383L621 365Z" fill="#162e8b" stroke="#162e8b"></path><path d="M621 365L698 383L725 285Z" fill="#00172a" stroke="#00172a"></path><path d="M787 221L691 87L686 221Z" fill="#242f98" stroke="#242f98"></path><path d="M686 221L691 87L612 211Z" fill="#001c38" stroke="#001c38"></path><path d="M367 204L314 300L361 304Z" fill="#002555" stroke="#002555"></path><path d="M361 304L328 425L426 405Z" fill="#002147" stroke="#002147"></path><path d="M536 60L364 85L482 237Z" fill="#332fa4" stroke="#332fa4"></path><path d="M367 204L300 213L314 300Z" fill="#012b71" stroke="#012b71"></path><path d="M501 482L575 479L503 407Z" fill="#332fa4" stroke="#332fa4"></path><path d="M503 407L575 479L621 365Z" fill="#00101c" stroke="#00101c"></path><path d="M364 85L300 213L367 204Z" fill="#162e8b" stroke="#162e8b"></path><path d="M536 60L404 0L364 85Z" fill="#332fa4" stroke="#332fa4"></path><path d="M599 0L504 0L536 60Z" fill="#002863" stroke="#002863"></path><path d="M432 506L501 482L426 405Z" fill="#092d7e" stroke="#092d7e"></path><path d="M426 405L501 482L503 407Z" fill="#002863" stroke="#002863"></path><path d="M792 339L787 221L725 285Z" fill="#002863" stroke="#002863"></path><path d="M725 285L787 221L686 221Z" fill="#002863" stroke="#002863"></path><path d="M691 87L599 0L582 127Z" fill="#002147" stroke="#002147"></path><path d="M836 384L792 339L698 383Z" fill="#162e8b" stroke="#162e8b"></path><path d="M698 383L792 339L725 285Z" fill="#092d7e" stroke="#092d7e"></path><path d="M807 0L676 0L691 87Z" fill="#002555" stroke="#002555"></path><path d="M691 87L676 0L599 0Z" fill="#002147" stroke="#002147"></path><path d="M504 0L404 0L536 60Z" fill="#002863" stroke="#002863"></path><path d="M364 85L268 83L300 213Z" fill="#092d7e" stroke="#092d7e"></path><path d="M314 300L328 425L361 304Z" fill="#092d7e" stroke="#092d7e"></path><path d="M206 376L328 425L314 300Z" fill="#00172a" stroke="#00172a"></path><path d="M328 425L432 506L426 405Z" fill="#162e8b" stroke="#162e8b"></path><path d="M501 482L507 600L575 479Z" fill="#092d7e" stroke="#092d7e"></path><path d="M787 221L811 81L691 87Z" fill="#012b71" stroke="#012b71"></path><path d="M900 108L811 81L787 221Z" fill="#332fa4" stroke="#332fa4"></path><path d="M333 0L268 83L364 85Z" fill="#332fa4" stroke="#332fa4"></path><path d="M300 213L214 279L314 300Z" fill="#001c38" stroke="#001c38"></path><path d="M404 0L333 0L364 85Z" fill="#002863" stroke="#002863"></path><path d="M575 479L710 517L698 383Z" fill="#001c38" stroke="#001c38"></path><path d="M619 600L710 517L575 479Z" fill="#012b71" stroke="#012b71"></path><path d="M818 513L836 384L698 383Z" fill="#00172a" stroke="#00172a"></path><path d="M900 295L900 224L787 221Z" fill="#012b71" stroke="#012b71"></path><path d="M181 180L214 279L300 213Z" fill="#012b71" stroke="#012b71"></path><path d="M328 425L290 480L432 506Z" fill="#162e8b" stroke="#162e8b"></path><path d="M206 376L290 480L328 425Z" fill="#00101c" stroke="#00101c"></path><path d="M900 0L807 0L811 81Z" fill="#242f98" stroke="#242f98"></path><path d="M811 81L807 0L691 87Z" fill="#012b71" stroke="#012b71"></path><path d="M900 295L787 221L792 339Z" fill="#012b71" stroke="#012b71"></path><path d="M400 600L507 600L432 506Z" fill="#002555" stroke="#002555"></path><path d="M432 506L507 600L501 482Z" fill="#092d7e" stroke="#092d7e"></path><path d="M214 279L206 376L314 300Z" fill="#012b71" stroke="#012b71"></path><path d="M209 0L205 105L268 83Z" fill="#332fa4" stroke="#332fa4"></path><path d="M268 83L205 105L300 213Z" fill="#002555" stroke="#002555"></path><path d="M214 279L94 369L206 376Z" fill="#242f98" stroke="#242f98"></path><path d="M836 384L900 295L792 339Z" fill="#001c38" stroke="#001c38"></path><path d="M205 105L181 180L300 213Z" fill="#162e8b" stroke="#162e8b"></path><path d="M507 600L619 600L575 479Z" fill="#00172a" stroke="#00172a"></path><path d="M900 224L900 108L787 221Z" fill="#002147" stroke="#002147"></path><path d="M290 480L400 600L432 506Z" fill="#002863" stroke="#002863"></path><path d="M710 517L818 513L698 383Z" fill="#002863" stroke="#002863"></path><path d="M836 384L900 417L900 295Z" fill="#242f98" stroke="#242f98"></path><path d="M839 600L818 513L710 517Z" fill="#00172a" stroke="#00172a"></path><path d="M619 600L692 600L710 517Z" fill="#012b71" stroke="#012b71"></path><path d="M818 513L900 417L836 384Z" fill="#001c38" stroke="#001c38"></path><path d="M333 0L209 0L268 83Z" fill="#002863" stroke="#002863"></path><path d="M90 103L83 213L181 180Z" fill="#242f98" stroke="#242f98"></path><path d="M900 108L900 0L811 81Z" fill="#162e8b" stroke="#162e8b"></path><path d="M192 522L281 600L290 480Z" fill="#002555" stroke="#002555"></path><path d="M290 480L281 600L400 600Z" fill="#092d7e" stroke="#092d7e"></path><path d="M206 376L192 522L290 480Z" fill="#012b71" stroke="#012b71"></path><path d="M112 462L192 522L206 376Z" fill="#002863" stroke="#002863"></path><path d="M839 600L900 518L818 513Z" fill="#002555" stroke="#002555"></path><path d="M818 513L900 518L900 417Z" fill="#00101c" stroke="#00101c"></path><path d="M90 103L181 180L205 105Z" fill="#002147" stroke="#002147"></path><path d="M181 180L83 213L214 279Z" fill="#012b71" stroke="#012b71"></path><path d="M66 330L94 369L214 279Z" fill="#332fa4" stroke="#332fa4"></path><path d="M692 600L839 600L710 517Z" fill="#00101c" stroke="#00101c"></path><path d="M209 0L90 103L205 105Z" fill="#00172a" stroke="#00172a"></path><path d="M94 369L112 462L206 376Z" fill="#002555" stroke="#002555"></path><path d="M192 522L203 600L281 600Z" fill="#001c38" stroke="#001c38"></path><path d="M83 213L66 330L214 279Z" fill="#002147" stroke="#002147"></path><path d="M94 369L0 396L112 462Z" fill="#242f98" stroke="#242f98"></path><path d="M0 305L66 330L83 213Z" fill="#092d7e" stroke="#092d7e"></path><path d="M71 600L203 600L192 522Z" fill="#002555" stroke="#002555"></path><path d="M839 600L900 600L900 518Z" fill="#242f98" stroke="#242f98"></path><path d="M209 0L82 0L90 103Z" fill="#002147" stroke="#002147"></path><path d="M0 162L0 305L83 213Z" fill="#002147" stroke="#002147"></path><path d="M66 330L0 396L94 369Z" fill="#002555" stroke="#002555"></path><path d="M112 462L71 600L192 522Z" fill="#092d7e" stroke="#092d7e"></path><path d="M0 162L83 213L90 103Z" fill="#00101c" stroke="#00101c"></path><path d="M0 113L0 162L90 103Z" fill="#001c38" stroke="#001c38"></path><path d="M0 0L0 113L90 103Z" fill="#00101c" stroke="#00101c"></path><path d="M0 305L0 396L66 330Z" fill="#092d7e" stroke="#092d7e"></path><path d="M0 503L71 600L112 462Z" fill="#00172a" stroke="#00172a"></path><path d="M82 0L0 0L90 103Z" fill="#00172a" stroke="#00172a"></path><path d="M0 396L0 503L112 462Z" fill="#00172a" stroke="#00172a"></path><path d="M0 503L0 600L71 600Z" fill="#00172a" stroke="#00172a"></path></g></svg>